<svg width="32" height="32" fill="none" xmlns="http://www.w3.org/2000/svg"><mask id="prefix__a" style="mask-type:alpha" maskUnits="userSpaceOnUse" x="0" y="0" width="32" height="32"><path fill="#000" d="M0 0h32v32H0z"/></mask><g mask="url(#prefix__a)"><path d="M15.777 2.607a19.555 19.555 0 014.208 12.34v1.066l.917.557a5.724 5.724 0 012.489 3.134c-.37-.272-.757-.521-1.159-.746l-2.444-1.372-.44 2.77c-.038.244-.089.487-.152.727h-6.85a11.691 11.691 0 01-.26-.953l-.555-2.507-2.253 1.254c-.377.21-.74.442-1.089.695a5.954 5.954 0 012.451-3.133l.872-.558v-.99a20.049 20.049 0 014.272-12.284h-.007zM15.784 0a.598.598 0 00-.389.144l-.057.05a21.968 21.968 0 00-5.73 14.69 7.81 7.81 0 00-3.257 4.245 7.684 7.684 0 00.266 5.313 8.63 8.63 0 013.616-3.91c.16.68.372 1.349.636 1.998a.589.589 0 00.212.315c.103.08.23.123.361.124h8.836c.178 0 .356-.17.446-.432a8.047 8.047 0 00.534-1.924 8.561 8.561 0 013.616 3.91 7.48 7.48 0 00.332-5.326 7.607 7.607 0 00-3.311-4.225A21.487 21.487 0 0016.217.194a.592.592 0 00-.44-.194h.007z" fill="#4EA8DE"/><path d="M15.777 14.364c-.489 0-.967-.142-1.373-.41a2.447 2.447 0 01-.913-1.09 2.404 2.404 0 01.529-2.655 2.488 2.488 0 011.263-.671c.479-.097.976-.051 1.429.13.453.182.84.492 1.115.89.274.399.423.868.426 1.35a2.344 2.344 0 01-.665 1.696 2.414 2.414 0 01-1.69.735.39.39 0 01-.12 0v.025z" fill="#4EA8DE"/><path d="M19.221 24.53a1.216 1.216 0 00-.866.327 1.178 1.178 0 00-.369.838v3.698c0 .322.13.631.362.86a1.245 1.245 0 001.746 0c.232-.229.362-.538.362-.86v-3.648a1.163 1.163 0 00-.33-.85 1.199 1.199 0 00-.848-.366h-.057zM12.346 24.53a1.227 1.227 0 00-.887.317 1.19 1.19 0 00-.386.848v3.698c0 .322.13.632.362.86a1.245 1.245 0 001.746 0c.232-.228.362-.538.362-.86v-3.648a1.163 1.163 0 00-.33-.85 1.197 1.197 0 00-.848-.365h-.019zM15.688 24.53a1.227 1.227 0 00-.863.33 1.19 1.19 0 00-.372.835v5.095c0 .323.13.632.362.86a1.245 1.245 0 001.746 0c.232-.228.362-.537.362-.86v-5.013a1.163 1.163 0 00-.33-.851 1.197 1.197 0 00-.848-.365l-.057-.031z" fill="#5E60CE"/></g></svg>